<?xml version="1.0" encoding="UTF-8" standalone="no"?>
<!DOCTYPE svg PUBLIC "-//W3C//DTD SVG 1.1//EN" "http://www.w3.org/Graphics/SVG/1.1/DTD/svg11.dtd">
<svg width="100%" height="100%" viewBox="0 0 1314 345" version="1.1" xmlns="http://www.w3.org/2000/svg" xmlns:xlink="http://www.w3.org/1999/xlink" xml:space="preserve" xmlns:serif="http://www.serif.com/" style="fill-rule:evenodd;clip-rule:evenodd;stroke-linejoin:round;stroke-miterlimit:2;">
    <g transform="matrix(1,0,0,1,-2360,-2546)">
        <g transform="matrix(3.13579,0,0,1.9877,0,0)">
            <g transform="matrix(0.458443,0,0,0.806093,-443.318,-1194.13)">
                <rect x="2609.04" y="3070.71" width="913.318" height="214.447" style="fill:none;"/>
                <g transform="matrix(2.18129,0,0,1.24055,933.158,1374.15)">
                    <g id="footer-logo.svg" transform="matrix(0.100528,0,0,0.158592,634.938,1188.35)">
                        <path d="M2217.28,1454.46C2359.99,1365.92 2542.07,1302.99 2730.1,1277.41C2918.95,1251.72 3091.9,1266.75 3217.08,1319.17C3352.53,1375.83 3417.83,1469.5 3403.53,1580.95C3389.6,1689.68 3299.81,1801.99 3148.62,1895.84L3148.61,1895.84C3005.96,1984.33 2823.87,2047.25 2635.91,2072.84C2447,2098.53 2274.07,2083.55 2148.83,2031.16L2148.83,2031.16C2013.37,1974.45 1948.1,1880.82 1962.41,1769.29C1976.33,1660.63 2066.15,1548.28 2217.28,1454.46L2217.28,1454.46ZM2230.35,1475.53C2087.12,1564.44 2000.19,1669.46 1987,1772.44L1987,1772.45C1974.02,1873.6 2035.54,1956.85 2158.4,2008.29C2280.31,2059.28 2448.69,2073.28 2632.56,2048.27C2816.94,2023.17 2995.6,1961.57 3135.54,1874.77C3278.84,1785.82 3365.73,1680.85 3378.94,1577.8C3391.91,1476.71 3330.36,1393.43 3207.51,1342.05L3207.5,1342.05C3085.66,1291.02 2917.26,1276.97 2733.45,1301.98C2548.99,1327.07 2370.34,1388.67 2230.35,1475.53ZM2267.97,1468.71C2241.28,1500.13 2223.99,1540.46 2219.45,1589.9C2214.74,1641.32 2224.93,1685.4 2265.24,1714.92C2239.59,1736.53 2217.85,1761.46 2205.42,1793.56C2196.24,1817.3 2192.84,1842.5 2190.6,1867.7C2185.86,1920.69 2193.38,1979.55 2231.57,2019.15C2208.33,2012.77 2185.54,2005.09 2163.59,1995.91C2096.8,1967.96 2028.28,1921.51 2006.05,1848.83C1998.62,1824.52 1997.09,1799.3 2000.31,1774.15C2016.1,1650.98 2138.85,1548.11 2237.43,1486.92C2247.47,1480.69 2257.65,1474.62 2267.97,1468.71ZM2304.89,1712.81L2304.68,1711.22C2252.5,1689.15 2236.08,1650.75 2241.93,1591.97C2251.41,1483.53 2329.48,1422.66 2439.06,1409.7C2551.18,1396.43 2619.97,1439.12 2610.59,1548.35C2605.58,1600.58 2580.49,1651.15 2521.29,1685.59L2521.5,1687.17C2583.25,1716.18 2595.1,1752.7 2588.53,1825.28C2576.43,1959.04 2504.64,2021.59 2371.28,2037.37C2261.7,2050.33 2202.33,1987.97 2213.08,1869.71C2218.81,1803.68 2230.96,1765.93 2304.89,1712.81ZM2375.31,1589.09C2372.6,1620.08 2376.91,1658.3 2416.84,1653.57C2461.01,1648.34 2472.84,1608.22 2475.96,1573.96C2478.78,1543.77 2473.3,1503.27 2433.38,1508C2387.51,1513.42 2378.23,1553.25 2375.31,1589.09ZM2397.8,1590.98C2399.11,1575.48 2401.67,1554.53 2411.98,1542.27C2418.22,1534.83 2426.54,1531.52 2436.03,1530.4C2439.5,1530 2444.31,1529.83 2447.05,1532.46C2452.13,1537.35 2453.6,1549.75 2453.91,1556.4C2454.14,1561.56 2453.96,1566.74 2453.49,1571.87C2451.13,1597.52 2444.48,1627.57 2414.19,1631.15C2410.97,1631.53 2405.64,1631.83 2403.15,1629.33C2398.03,1624.2 2397.25,1609.56 2397.26,1602.77C2397.27,1598.83 2397.47,1594.9 2397.8,1590.98ZM2392.14,1936.47C2446.5,1930.03 2450.97,1873.83 2454.42,1835.5C2457.86,1797.17 2460.32,1745.25 2406.81,1751.58C2351.59,1758.11 2352,1812.12 2348.56,1850.45C2345.43,1884.71 2342.02,1942.4 2392.14,1936.47ZM2389.48,1914.05C2385.62,1914.51 2379.76,1914.76 2376.76,1911.81C2370.79,1905.93 2369.74,1889.33 2369.6,1881.46C2369.43,1871.78 2370.16,1862.1 2371.03,1852.47C2372.74,1833.56 2373.41,1802.36 2384.81,1786.68C2390.86,1778.37 2399.53,1775.16 2409.45,1773.98C2414.6,1773.38 2423.14,1772.95 2427,1777.17C2433.48,1784.3 2433.58,1803.58 2433.32,1812.66C2433.11,1819.61 2432.56,1826.55 2431.94,1833.48C2430.06,1854.38 2427.99,1886.12 2413.53,1902.33C2407.12,1909.52 2398.95,1912.93 2389.48,1914.05ZM2440.26,2046.77C2541.57,2017.5 2600,1948.93 2611.01,1827.31C2614.19,1792.13 2614.77,1753.69 2596.84,1721.99C2588.18,1706.69 2576.2,1694.58 2562.3,1684.64C2603.68,1650.9 2628.18,1605.09 2633.06,1550.34C2637.01,1506.07 2629.79,1459.81 2597.52,1426.84C2559.05,1387.53 2499.67,1381.44 2447.11,1386.16C2540.98,1351.89 2639.34,1328.32 2735.25,1315.27C2820.28,1303.7 2907.65,1299.67 2993.23,1306.96C3063.81,1312.96 3136.75,1326.98 3202.32,1354.42C3269.12,1382.38 3337.72,1428.88 3359.92,1501.62C3367.32,1525.86 3368.84,1551.01 3365.62,1576.09C3349.82,1699.32 3227.11,1802.15 3128.47,1863.36C2981.11,1954.79 2801.99,2011.66 2630.75,2034.96C2567.98,2043.5 2503.93,2047.95 2440.26,2046.77ZM3227.16,1746.15L3228.86,1725.99L3200.72,1729.56L3207.4,1648.93L3184.37,1651.84L3175.99,1752.63L3227.16,1746.15ZM2988.36,1737.02L2995.95,1736.06C3001.24,1735.79 3002.78,1739.59 3002.89,1745.68C3003,1751.79 3001.8,1760.19 3001.46,1769.01C3001.44,1771 3001.8,1772.83 3002.3,1774.62L3027.43,1771.43L3027.52,1770.09C3026.62,1769.28 3026.08,1768.15 3025.65,1766.88C3024.86,1760.6 3026.13,1743.28 3026.18,1735.29C3026.36,1728.36 3022.13,1724.37 3015.93,1723.69L3015.9,1723.43C3025.94,1717.64 3029.05,1709.67 3029.95,1698.91C3031.67,1678.88 3022.85,1672.29 3004.01,1674.67L2970.37,1678.92L2961.99,1779.72L2985.03,1776.8L2988.36,1737.02ZM2991.98,1694.14C3003.2,1692.46 3007.98,1692.38 3006.97,1704.35C3006.55,1710.52 3004.45,1717.04 2997.78,1717.88L2989.92,1718.87L2991.98,1694.14ZM3034.47,1649.17L3041.06,1569.56L3071.37,1565.72L3064.79,1645.34L3108.52,1639.8L3124.44,1448.43L3080.7,1453.96L3074.61,1527.44L3044.29,1531.29L3050.39,1457.8L3006.65,1463.33L2990.73,1654.7L3034.47,1649.17ZM3245.92,1695.97C3245.34,1689.11 3239.32,1684.02 3232.47,1684.59C3225.62,1685.16 3220.53,1691.18 3221.12,1698.03C3221.68,1704.89 3227.7,1709.96 3234.54,1709.39C3241.39,1708.82 3246.49,1702.83 3245.92,1695.97ZM3224.55,1691.46L3227.78,1691.2L3229.57,1697.71L3230.28,1690.99L3233.49,1690.72L3234.39,1701.61L3232.4,1701.77L3231.71,1693.44L3230.84,1701.89L3229.01,1702.05L3226.75,1693.85L3227.43,1702.17L3225.45,1702.35L3224.55,1691.46ZM3235.31,1701.52L3234.42,1690.65L3238.51,1690.3C3239.28,1690.25 3239.88,1690.28 3240.31,1690.42C3240.7,1690.54 3241.07,1690.86 3241.34,1691.33C3241.63,1691.79 3241.78,1692.36 3241.84,1693.06C3241.89,1693.62 3241.85,1694.18 3241.71,1694.65C3241.54,1695.11 3241.32,1695.49 3241.01,1695.78C3240.83,1695.99 3240.52,1696.13 3240.18,1696.28C3240.49,1696.39 3240.71,1696.52 3240.85,1696.65C3240.94,1696.69 3241.1,1696.89 3241.32,1697.18C3241.49,1697.46 3241.64,1697.64 3241.68,1697.83L3243.14,1700.87L3240.39,1701.11L3238.79,1697.87C3238.57,1697.46 3238.41,1697.19 3238.26,1697.09C3238.04,1696.9 3237.88,1696.86 3237.63,1696.89L3237.44,1696.9L3237.81,1701.32L3235.31,1701.52ZM3237.27,1694.85L3238.3,1694.77C3238.41,1694.77 3238.64,1694.67 3238.95,1694.54C3239.08,1694.5 3239.22,1694.37 3239.32,1694.16C3239.41,1693.99 3239.42,1693.79 3239.39,1693.55C3239.37,1693.18 3239.28,1692.93 3239.08,1692.71C3238.91,1692.57 3238.59,1692.47 3238.15,1692.52L3237.09,1692.6L3237.27,1694.85ZM2671.97,1816.43L2676.5,1737.66L2676.76,1737.63L2685.98,1814.65L2703.14,1812.48L2725.99,1731.4L2726.26,1731.36L2717.28,1810.7L2739.27,1807.91L2747.65,1707.11L2715.45,1711.19L2698.2,1772.29L2697.92,1772.33L2690.98,1714.29L2658.5,1718.4L2650.12,1819.2L2671.97,1816.43ZM3135.82,1685.38C3137.35,1666.03 3127.4,1656.65 3107.24,1659.21C3087.09,1661.76 3074.93,1673.94 3073.38,1693.28L3069.93,1734.28C3068.03,1756.99 3075.11,1767.8 3098.4,1764.86C3121.7,1761.9 3130.45,1749.09 3132.37,1726.37L3135.82,1685.38ZM3109.19,1731.3C3108.59,1737.1 3107.43,1745.76 3099.97,1746.71C3092.5,1747.65 3092.23,1739.17 3092.82,1733.38L3096.23,1691.99C3096.78,1685.8 3098.35,1678.29 3105.68,1677.36C3113.28,1676.4 3113.14,1683.73 3112.6,1689.92L3109.19,1731.3ZM2827.97,1716.9L2846.04,1714.61L2839.22,1795.26L2862.25,1792.35L2869.06,1711.7L2887.65,1709.34L2889.22,1689.2L2829.54,1696.76L2827.97,1716.9ZM2763.61,1683.45L2766.84,1645.18L2707.46,1652.69L2710.8,1611.36L2765.47,1604.44L2768.7,1566.16L2714.04,1573.08L2717.16,1537.85L2773.56,1530.71L2776.55,1492.46L2676.41,1505.13L2660.49,1696.51L2763.61,1683.45ZM2969.61,1657.38L2978.43,1553.5L2919.04,1561.03L2916.08,1595.48L2931.74,1593.5L2930.36,1608.57C2929.38,1620.81 2927.91,1633.12 2913,1635.01C2901.57,1636.45 2897.31,1630.67 2898.22,1619.96L2906.18,1525.28C2907.12,1512.79 2911.16,1504.71 2924.85,1503.22C2936.32,1502.03 2937.82,1509.91 2936.35,1526.26L2935.41,1536.73L2979.14,1531.2L2980.36,1516.91C2983.75,1477.84 2962.85,1464.33 2925.57,1469.05C2885.57,1474.12 2865.35,1495.86 2861.78,1537.47L2855.31,1616.05C2852.38,1650.76 2862.08,1675.54 2899.11,1670.85C2917.99,1668.45 2928.3,1662.1 2938.71,1644.63L2939.2,1644.57L2939.79,1661.15L2969.61,1657.38ZM3164.47,1754.1L3172.85,1653.3L3149.81,1656.21L3141.43,1757.01L3164.47,1754.1ZM2829.71,1675.08L2845.63,1483.71L2801.9,1489.24L2785.97,1680.62L2829.71,1675.08ZM2957.55,1707.94C2959.1,1688.6 2949.13,1679.22 2928.98,1681.77C2908.82,1684.32 2896.67,1696.5 2895.12,1715.85L2891.67,1756.84C2889.76,1779.56 2896.85,1790.37 2920.14,1787.41C2943.44,1784.47 2952.19,1771.65 2954.1,1748.94L2957.55,1707.94ZM2930.92,1753.87C2930.33,1759.66 2929.16,1768.32 2921.7,1769.26C2914.24,1770.21 2913.96,1761.73 2914.56,1755.94L2917.97,1714.56C2918.51,1708.37 2920.08,1700.85 2927.41,1699.92C2935.01,1698.96 2934.88,1706.29 2934.33,1712.47L2930.92,1753.87ZM2819.35,1725.43C2820.89,1706.09 2810.92,1696.72 2790.76,1699.26C2770.61,1701.82 2758.46,1714 2756.91,1733.34L2753.45,1774.33C2751.55,1797.05 2758.63,1807.85 2781.93,1804.91C2805.22,1801.95 2813.98,1789.15 2815.89,1766.44L2819.35,1725.43ZM2792.71,1771.37C2792.11,1777.15 2790.95,1785.82 2783.49,1786.76C2776.03,1787.7 2775.76,1779.23 2776.35,1773.43L2779.75,1732.04C2780.3,1725.85 2781.88,1718.34 2789.21,1717.41C2796.79,1716.46 2796.66,1723.79 2796.12,1729.97L2792.71,1771.37ZM3137.11,1484.69L3171.41,1480.35L3158.47,1633.47L3202.21,1627.94L3215.14,1474.82L3250.42,1470.35L3253.42,1432.1L3140.1,1446.44L3137.11,1484.69Z" style="fill:white;"/>
                    </g>
                    <g transform="matrix(1.28255,0,0,2.02335,1052.16,1393.41)">
                        <g id="_1594188440320">
                            <path d="M26.191,17.651C26.7,17.035 27.145,16.598 27.622,16.038C29.353,16.942 34.176,23.504 35.357,25.47C34.875,24.931 34.059,24.408 33.453,23.811C31.914,22.292 29.15,19.821 27.024,19.328C26.418,19.919 26.001,20.22 25.672,20.995C30.706,22.535 34.182,29.27 40.788,31.289C40.235,26.914 30.828,14.946 27.7,13.001C25.698,14.561 19.245,21.839 17.819,24.94C23.748,24.963 25.664,28.011 28.811,30.666C36.473,37.128 36.187,35.012 39.539,36.685L39.109,39.407C34.133,39.225 30.219,37.378 26.901,34.125C24.83,32.094 20.649,27.79 16.178,27.612C15.031,30.462 13.705,32.74 13.696,36.449C13.684,42.542 18.191,46.231 23.086,47.702C28.625,49.366 36.789,47.403 38.693,43.854C33.542,44.114 29.922,43.65 26.229,41.236C23.73,39.603 19.29,34.907 18.024,34.555C17.622,37.647 17.493,36.461 21.56,40.351C26.089,44.683 29.06,44.526 31.668,45.734C25.871,47.911 16.288,44.481 16.043,36.899C15.982,35.016 16.742,31.291 17.698,30.079C23.838,31.504 27.002,41.976 40.569,41.467C41.407,40.475 42.531,36.181 41.589,35.003C41.244,34.641 39.621,34.527 38.409,34.165C31.755,32.174 29.114,26.675 24.277,24.324L21.841,23.231C21.821,23.168 21.754,23.176 21.715,23.142L26.191,17.652L26.191,17.651Z" style="fill:rgb(161,161,161);"/>
                            <path d="M5.807,19.201L1.715,16.956L1.723,16.943L6.236,18.468L6.76,17.571L3.228,14.367L3.236,14.353L7.193,16.831L7.866,15.68L2.727,12.676L1.742,14.362L4.401,16.78L4.393,16.794L0.993,15.643L0,17.343L5.139,20.345L5.808,19.201L5.807,19.201ZM9.158,14.312L8.435,13.39L9.193,12.599L10.167,13.256L11.143,12.236L5.948,9.056L4.785,10.272L8.187,15.327L9.158,14.311L9.158,14.312ZM8.342,11.972L7.783,12.557L6.135,10.422L6.147,10.41L8.342,11.972L8.342,11.972ZM4.071,8.469L4.371,9.855L5.123,9.069L5.212,7.276L4.071,8.469ZM8.749,6.554L7.658,7.413L10.488,8.982L11.283,12.134L12.33,11.31L11.854,9.422L11.867,9.412L13.496,10.392L14.594,9.528L11.741,7.996L10.868,4.886L9.771,5.75L10.391,7.564L10.379,7.574L8.748,6.555L8.749,6.554ZM16.308,8.676L13.323,3.526L12.115,4.227L15.1,9.376L16.308,8.676ZM18.221,7.752L16.571,3.385L16.586,3.38L19.023,7.473L20.005,7.133L19.405,2.402L19.42,2.397L20.815,6.852L22.075,6.415L20.123,0.791L18.279,1.432L18.726,4.997L18.712,5.003L16.877,1.918L15.018,2.563L16.969,8.186L18.221,7.752L18.221,7.752ZM23.929,6.162L23.953,4.992L25.041,4.858L25.379,5.984L26.781,5.811L24.77,0.062L23.1,0.268L22.535,6.334L23.929,6.162L23.929,6.162ZM24.779,3.835L23.975,3.934L24.051,1.238L24.067,1.236L24.779,3.835ZM33.372,2.465L33.433,1.968C33.581,0.764 32.934,0.172 31.753,0.027C30.485,-0.129 29.82,0.397 29.662,1.68L29.363,4.107C29.215,5.312 29.628,6.05 30.904,6.207C32.321,6.381 32.992,5.744 33.117,4.728L33.206,4.004L31.82,3.833L31.754,4.369C31.709,4.731 31.61,5.214 31.137,5.156C30.775,5.111 30.665,4.898 30.706,4.567L31.073,1.646C31.121,1.26 31.252,1.036 31.684,1.097C31.945,1.129 32.094,1.411 32.032,1.916L31.985,2.294L33.371,2.464L33.372,2.465ZM34.643,6.795L35.172,5.751L36.21,6.101L36.027,7.262L37.365,7.715L38.045,1.662L36.451,1.123L33.313,6.345L34.643,6.795L34.643,6.795ZM36.417,5.066L35.651,4.806L36.888,2.41L36.903,2.415L36.418,5.066L36.417,5.066ZM40.46,9.272L40.998,8.211L39.477,7.439L41.632,3.193L40.387,2.561L37.693,7.868L40.459,9.272L40.46,9.272ZM42.068,10.344L45.252,5.315L44.072,4.568L40.888,9.597L42.068,10.344ZM44.135,12.004C44.46,12.283 44.823,12.543 45.255,12.6C45.728,12.671 46.151,12.459 46.544,12.013L48.267,10.009C48.639,9.575 48.95,9.079 48.748,8.487C48.575,7.993 48.123,7.583 47.737,7.252L46.588,6.264L42.709,10.778L44.135,12.004L44.135,12.004ZM46.949,7.987C47.456,8.444 47.605,8.624 47.156,9.158L45.889,10.633C45.389,11.251 45.135,11.534 44.466,10.876L46.949,7.986L46.949,7.987ZM46.702,14.584L47.716,13.999L48.394,14.859L47.606,15.732L48.479,16.842L52.356,12.144L51.316,10.822L45.834,13.48L46.702,14.584ZM49.133,14.106L48.633,13.469L50.979,12.138L50.989,12.151L49.133,14.105L49.133,14.106ZM49.625,18.854C49.84,19.225 50.098,19.589 50.487,19.785C50.91,20.008 51.379,19.947 51.897,19.655L54.183,18.328C54.678,18.041 55.135,17.675 55.138,17.049C55.138,16.527 54.845,15.99 54.59,15.551L53.829,14.24L48.681,17.227L49.625,18.854L49.625,18.854ZM53.604,15.985C53.933,16.584 54.014,16.803 53.414,17.16L51.732,18.136C51.057,18.555 50.724,18.739 50.309,17.898L53.604,15.985Z" style="fill:rgb(161,161,161);fill-rule:nonzero;"/>
                            <path d="M27.822,7.867C40.405,7.867 50.606,18.069 50.606,30.651C50.606,43.234 40.404,53.435 27.822,53.435C15.239,53.435 5.039,43.234 5.039,30.651C5.039,18.068 15.239,7.867 27.822,7.867ZM27.822,9.14C39.702,9.14 49.333,18.771 49.333,30.651C49.333,42.531 39.702,52.163 27.822,52.163C15.942,52.163 6.31,42.531 6.31,30.651C6.31,18.771 15.942,9.14 27.822,9.14Z" style="fill:rgb(161,161,161);"/>
                            <path d="M0.685,41.393L2.487,40.694L2.969,41.938L3.822,41.607L3.339,40.363L4.095,40.07L4.619,41.422L5.472,41.092L4.559,38.739L0.297,40.393L0.685,41.393L0.685,41.393ZM4.099,45.219C3.873,45.352 3.525,45.528 3.348,45.229C3.172,44.93 3.486,44.695 3.712,44.562L5.329,43.609C5.571,43.467 5.881,43.334 6.055,43.628C6.234,43.932 5.958,44.123 5.716,44.265L4.099,45.219ZM6.324,45.153C7.08,44.707 7.243,44.024 6.766,43.215C6.29,42.406 5.604,42.202 4.848,42.648L3.246,43.592C2.359,44.114 2.088,44.712 2.639,45.647C3.19,46.582 3.834,46.62 4.722,46.097L6.324,45.153L6.324,45.153ZM8.063,46.682C8.412,47.073 8.54,47.261 8.127,47.612C7.913,47.794 7.648,47.924 7.446,47.687L7.209,47.408L8.063,46.682ZM6.582,47.941L6.811,48.211C6.959,48.413 6.875,48.596 6.681,48.801C6.488,49.006 6.184,49.232 5.889,49.507C5.824,49.571 5.774,49.645 5.729,49.723L6.487,50.614L6.534,50.575C6.535,50.51 6.557,50.451 6.587,50.393C6.771,50.157 7.366,49.643 7.625,49.383C7.854,49.164 7.874,48.867 7.731,48.596L7.741,48.588C8.19,48.797 8.53,48.661 8.902,48.345C9.593,47.756 9.579,47.193 9.01,46.525L7.995,45.332L4.513,48.293L5.208,49.11L6.582,47.941L6.582,47.941ZM8.395,52.53L10.498,49.626L10.508,49.633L8.913,52.926L9.547,53.412L12.327,51.027L12.336,51.035L10.069,53.813L10.882,54.435L13.662,50.807L12.472,49.895L10.375,51.69L10.365,51.682L11.568,49.202L10.368,48.282L7.588,51.911L8.395,52.53L8.395,52.53ZM13.077,54.362C12.593,55.167 12.825,55.811 13.603,56.278C14.543,56.843 15.149,56.511 15.548,55.847L17.252,53.01L16.332,52.457L14.571,55.388C14.471,55.555 14.272,55.72 14.032,55.576C13.771,55.419 13.81,55.223 13.923,55.035L15.7,52.077L14.78,51.525L13.076,54.362L13.077,54.362ZM18.765,58.47L19.109,57.623L17.896,57.13L19.274,53.742L18.28,53.338L16.558,57.572L18.765,58.47L18.765,58.47ZM21.226,59.066L21.554,58.23L22.373,58.422L22.317,59.323L23.374,59.571L23.451,54.894L22.193,54.598L20.175,58.819L21.225,59.066L21.226,59.066ZM22.455,57.615L21.85,57.473L22.621,55.55L22.633,55.553L22.455,57.615ZM28.851,59.823L28.482,56.257L28.494,56.256L29.501,59.773L30.297,59.713L30.779,56.082L30.792,56.081L30.954,59.663L31.975,59.585L31.628,55.027L30.133,55.141L29.766,57.877L29.754,57.877L28.996,55.227L27.489,55.342L27.836,59.9L28.851,59.822L28.851,59.823ZM36.272,58.636L36.067,57.745L34.647,58.072L34.425,57.11L35.732,56.809L35.526,55.918L34.22,56.219L34.031,55.399L35.38,55.088L35.174,54.197L32.78,54.749L33.808,59.204L36.272,58.635L36.272,58.636ZM37.2,56.657L37.295,56.901C37.368,57.089 37.437,57.285 37.563,57.458C37.867,57.889 38.37,57.955 38.847,57.771C39.277,57.604 39.618,57.367 39.676,56.893C39.714,56.552 39.569,56.229 39.452,55.928L38.302,52.962L37.301,53.35L38.63,56.796C38.683,56.913 38.642,56.961 38.498,57.024C38.364,57.082 38.272,57.046 38.21,56.887L38.001,56.347L37.2,56.658L37.2,56.657ZM42.489,54.291C42.622,54.517 42.799,54.865 42.5,55.041C42.2,55.217 41.966,54.903 41.833,54.677L40.88,53.059C40.738,52.818 40.605,52.507 40.899,52.334C41.203,52.155 41.395,52.431 41.537,52.673L42.489,54.291ZM42.424,52.066C41.979,51.31 41.295,51.146 40.487,51.622C39.678,52.098 39.474,52.784 39.919,53.541L40.862,55.143C41.385,56.03 41.982,56.301 42.917,55.751C43.852,55.2 43.89,54.556 43.368,53.668L42.425,52.066L42.424,52.066ZM43.94,50.311C44.331,49.962 44.519,49.834 44.871,50.247C45.052,50.461 45.182,50.726 44.945,50.928L44.667,51.165L43.94,50.311ZM45.2,51.792L45.469,51.563C45.672,51.415 45.855,51.499 46.06,51.693C46.265,51.886 46.491,52.19 46.765,52.485C46.829,52.55 46.903,52.599 46.981,52.645L47.873,51.886L47.833,51.84C47.769,51.839 47.71,51.817 47.652,51.786C47.416,51.603 46.902,51.008 46.641,50.749C46.422,50.52 46.125,50.5 45.854,50.643L45.847,50.633C46.056,50.183 45.919,49.844 45.603,49.472C45.015,48.78 44.451,48.796 43.783,49.364L42.59,50.379L45.552,53.861L46.369,53.166L45.2,51.792L45.2,51.792ZM49.609,50.065L49.031,49.376L49.592,48.75L50.356,49.229L51.08,48.421L47.011,46.113L46.149,47.076L48.889,50.869L49.609,50.065ZM48.923,48.29L48.508,48.754L47.189,47.156L47.198,47.147L48.923,48.29ZM52.748,45.835C52.928,45.559 53.089,45.257 53.089,44.922C53.096,44.556 52.892,44.255 52.513,43.999L50.814,42.889C50.447,42.649 50.038,42.462 49.607,42.676C49.248,42.856 48.982,43.242 48.768,43.569L48.131,44.544L51.958,47.044L52.748,45.835ZM49.407,44.096C49.704,43.664 49.826,43.532 50.278,43.82L51.528,44.637C52.049,44.955 52.29,45.121 51.856,45.696L49.407,44.096ZM54.618,42.198L53.842,41.744L54.159,40.965L55.041,41.16L55.45,40.154L50.841,39.352L50.355,40.549L54.212,43.197L54.618,42.198L54.618,42.198ZM53.375,40.758L53.14,41.334L51.361,40.274L51.365,40.262L53.375,40.758Z" style="fill:rgb(161,161,161);fill-rule:nonzero;"/>
                        </g>
                    </g>
                    <g transform="matrix(0.318899,0,0,0.503094,0,0)">
                        <path d="M3175.14,2812.26C3175.14,2810.64 3176.45,2809.33 3178.07,2809.33C3179.69,2809.33 3181,2810.64 3181,2812.26L3181,2983.94C3181,2985.56 3179.69,2986.87 3178.07,2986.87C3176.45,2986.87 3175.14,2985.56 3175.14,2983.94L3175.14,2812.26Z" style="fill:rgb(161,161,161);"/>
                    </g>
                </g>
            </g>
        </g>
    </g>
</svg>
