<?xml version="1.0" encoding="UTF-8" standalone="no"?><!DOCTYPE svg PUBLIC "-//W3C//DTD SVG 1.1//EN" "http://www.w3.org/Graphics/SVG/1.1/DTD/svg11.dtd"><svg width="100%" height="100%" viewBox="0 0 457 259" version="1.1" xmlns="http://www.w3.org/2000/svg" xmlns:xlink="http://www.w3.org/1999/xlink" xml:space="preserve" xmlns:serif="http://www.serif.com/" style="fill-rule:evenodd;clip-rule:evenodd;stroke-linejoin:round;stroke-miterlimit:2;"><path id="footer-logo.svg" d="M81.525,59.744c44.986,-27.911 102.384,-47.747 161.658,-55.812c59.531,-8.097 114.05,-3.359 153.51,13.166c42.7,17.861 63.284,47.387 58.778,82.522c-4.394,34.274 -32.698,69.676 -80.358,99.262l-0.002,0.001c-44.97,27.893 -102.37,47.729 -161.622,55.795c-59.549,8.1 -114.062,3.375 -153.542,-13.137l-0.002,-0c-42.7,-17.879 -63.275,-47.394 -58.765,-82.551c4.389,-34.254 32.702,-69.67 80.344,-99.245l0.001,-0.001Zm4.121,6.641c-45.152,28.031 -72.554,61.134 -76.713,93.599l-0,0c-4.091,31.888 15.302,58.131 54.03,74.347c38.429,16.072 91.508,20.487 149.472,12.602c58.123,-7.912 114.443,-27.33 158.556,-54.691c45.17,-28.041 72.563,-61.132 76.727,-93.616c4.087,-31.867 -15.314,-58.118 -54.042,-74.318l-0.001,-0c-38.409,-16.085 -91.493,-20.513 -149.438,-12.631c-58.145,7.911 -114.462,27.329 -158.591,54.708Zm11.857,-2.148c-8.414,9.904 -13.863,22.619 -15.293,38.203c-1.488,16.209 1.727,30.105 14.435,39.409c-8.089,6.814 -14.941,14.672 -18.859,24.791c-2.895,7.483 -3.965,15.427 -4.673,23.37c-1.493,16.706 0.878,35.261 12.917,47.745c-7.328,-2.011 -14.511,-4.433 -21.432,-7.328c-21.053,-8.809 -42.652,-23.453 -49.661,-46.365c-2.342,-7.663 -2.825,-15.613 -1.809,-23.541c4.979,-38.828 43.672,-71.256 74.749,-90.544c3.163,-1.964 6.374,-3.877 9.626,-5.74Zm11.641,76.947l-0.069,-0.5c-16.449,-6.957 -21.625,-19.061 -19.78,-37.592c2.99,-34.182 27.597,-53.372 62.141,-57.458c35.345,-4.184 57.028,9.276 54.072,43.707c-1.58,16.464 -9.487,32.407 -28.151,43.263l0.068,0.5c19.466,9.143 23.201,20.655 21.131,43.536c-3.814,42.164 -26.447,61.883 -68.487,66.857c-34.542,4.087 -53.256,-15.572 -49.87,-52.852c1.808,-20.816 5.637,-32.715 28.945,-49.461Zm22.198,-38.998c-0.855,9.766 0.504,21.814 13.09,20.325c13.923,-1.648 17.653,-14.297 18.638,-25.096c0.89,-9.517 -0.839,-22.283 -13.425,-20.794c-14.459,1.71 -17.385,14.265 -18.303,25.565Zm7.089,0.595c0.411,-4.887 1.219,-11.493 4.468,-15.357c1.97,-2.343 4.591,-3.388 7.584,-3.741c1.092,-0.127 2.608,-0.18 3.473,0.65c1.6,1.541 2.065,5.449 2.162,7.546c0.073,1.626 0.016,3.261 -0.132,4.878c-0.745,8.086 -2.842,17.558 -12.389,18.688c-1.014,0.117 -2.697,0.211 -3.48,-0.575c-1.613,-1.616 -1.859,-6.232 -1.856,-8.373c0.003,-1.241 0.066,-2.482 0.17,-3.716Zm-1.786,108.909c17.138,-2.029 18.548,-19.745 19.633,-31.828c1.084,-12.082 1.86,-28.451 -15.009,-26.456c-17.404,2.059 -17.277,19.086 -18.361,31.168c-0.987,10.799 -2.063,28.985 13.737,27.116Zm-0.837,-7.068c-1.216,0.146 -3.066,0.224 -4.01,-0.707c-1.882,-1.853 -2.213,-7.085 -2.258,-9.567c-0.053,-3.049 0.177,-6.103 0.452,-9.137c0.54,-5.961 0.748,-15.796 4.344,-20.74c1.907,-2.62 4.638,-3.631 7.767,-4.003c1.623,-0.19 4.316,-0.326 5.532,1.007c2.043,2.245 2.074,8.322 1.992,11.186c-0.066,2.191 -0.24,4.379 -0.436,6.564c-0.59,6.586 -1.244,16.595 -5.803,21.703c-2.02,2.267 -4.594,3.341 -7.58,3.694Zm16.007,41.837c31.936,-9.225 50.356,-30.84 53.825,-69.179c1.004,-11.091 1.188,-23.209 -4.467,-33.202c-2.728,-4.821 -6.504,-8.638 -10.886,-11.773c13.042,-10.637 20.768,-25.075 22.306,-42.336c1.244,-13.955 -1.033,-28.539 -11.205,-38.93c-12.128,-12.392 -30.844,-14.312 -47.413,-12.824c29.59,-10.805 60.597,-18.234 90.832,-22.348c26.802,-3.646 54.346,-4.916 81.322,-2.62c22.249,1.891 45.244,6.311 65.911,14.962c21.059,8.815 42.684,23.471 49.683,46.403c2.33,7.64 2.81,15.568 1.797,23.474c-4.982,38.847 -43.666,71.263 -74.758,90.557c-46.454,28.823 -102.918,46.75 -156.899,54.094c-19.786,2.693 -39.977,4.095 -60.048,3.722Zm248.055,-94.762l0.537,-6.356l-8.869,1.124l2.106,-25.416l-7.262,0.916l-2.642,31.775l16.13,-2.043Zm-75.276,-2.88l2.394,-0.303c1.667,-0.085 2.153,1.112 2.188,3.034c0.034,1.926 -0.345,4.572 -0.452,7.354c-0.006,0.628 0.107,1.203 0.265,1.768l7.922,-1.004l0.028,-0.423c-0.284,-0.256 -0.454,-0.613 -0.59,-1.014c-0.25,-1.979 0.151,-7.438 0.167,-9.958c0.057,-2.185 -1.275,-3.441 -3.23,-3.656l-0.009,-0.082c3.163,-1.825 4.145,-4.338 4.43,-7.729c0.539,-6.315 -2.239,-8.392 -8.178,-7.641l-10.605,1.339l-2.643,31.775l7.262,-0.919l1.051,-12.541Zm1.14,-13.516c3.539,-0.53 5.045,-0.556 4.727,3.217c-0.133,1.945 -0.796,4.001 -2.899,4.266l-2.475,0.312l0.647,-7.795Zm13.396,-14.176l2.078,-25.097l9.554,-1.21l-2.074,25.098l13.784,-1.746l5.02,-60.327l-13.788,1.743l-1.922,23.165l-9.557,1.213l1.922,-23.165l-13.787,1.742l-5.017,60.327l13.787,-1.743Zm66.657,14.751c-0.183,-2.163 -2.081,-3.767 -4.24,-3.587c-2.16,0.18 -3.764,2.077 -3.581,4.237c0.177,2.163 2.075,3.76 4.231,3.58c2.16,-0.18 3.77,-2.068 3.59,-4.23Zm-6.738,-1.421l1.017,-0.082l0.565,2.052l0.224,-2.119l1.011,-0.085l0.284,3.432l-0.625,0.051l-0.218,-2.624l-0.275,2.662l-0.578,0.05l-0.71,-2.583l0.212,2.621l-0.622,0.057l-0.285,-3.432Zm3.391,3.17l-0.281,-3.426l1.292,-0.11c0.243,-0.016 0.429,-0.007 0.565,0.037c0.123,0.038 0.24,0.139 0.325,0.288c0.092,0.145 0.139,0.325 0.158,0.546c0.016,0.177 0.003,0.354 -0.041,0.502c-0.054,0.142 -0.123,0.262 -0.221,0.354c-0.057,0.066 -0.155,0.11 -0.262,0.157c0.098,0.035 0.167,0.076 0.211,0.117c0.029,0.013 0.079,0.076 0.149,0.168c0.053,0.088 0.101,0.145 0.113,0.205l0.461,0.96l-0.868,0.072l-0.502,-1.019c-0.069,-0.13 -0.12,-0.215 -0.167,-0.247c-0.07,-0.06 -0.12,-0.072 -0.199,-0.063l-0.06,0.003l0.117,1.393l-0.79,0.063Zm0.619,-2.103l0.325,-0.025c0.035,-0 0.108,-0.029 0.206,-0.07c0.041,-0.012 0.085,-0.053 0.116,-0.12c0.029,-0.053 0.032,-0.117 0.022,-0.192c-0.006,-0.117 -0.034,-0.196 -0.097,-0.265c-0.054,-0.045 -0.155,-0.076 -0.294,-0.06l-0.335,0.025l0.057,0.707Zm-178.2,38.326l1.427,-24.829l0.082,-0.009l2.905,24.279l5.411,-0.685l7.202,-25.558l0.085,-0.013l-2.832,25.009l6.934,-0.877l2.642,-31.775l-10.15,1.285l-5.44,19.259l-0.086,0.013l-2.188,-18.297l-10.239,1.298l-2.642,31.775l6.889,-0.875Zm146.22,-41.31c0.483,-6.099 -2.655,-9.055 -9.011,-8.25c-6.352,0.805 -10.185,4.645 -10.672,10.741l-1.089,12.923c-0.6,7.161 1.633,10.568 8.976,9.639c7.344,-0.931 10.104,-4.969 10.707,-12.13l1.089,-12.923Zm-8.395,14.477c-0.19,1.828 -0.556,4.555 -2.908,4.855c-2.352,0.297 -2.438,-2.374 -2.251,-4.202l1.073,-13.046c0.174,-1.951 0.67,-4.319 2.981,-4.613c2.393,-0.303 2.349,2.008 2.178,3.96l-1.073,13.046Zm-88.65,-4.541l5.695,-0.723l-2.15,25.426l7.262,-0.919l2.147,-25.422l5.86,-0.745l0.495,-6.35l-18.814,2.384l-0.495,6.349Zm-20.289,-10.545l1.02,-12.064l-18.72,2.368l1.055,-13.027l17.232,-2.182l1.02,-12.067l-17.233,2.182l0.982,-11.107l17.782,-2.252l0.941,-12.057l-31.566,3.994l-5.021,60.329l32.508,-4.117Zm64.939,-8.218l2.778,-32.745l-18.719,2.372l-0.935,10.861l4.938,-0.626l-0.436,4.752c-0.309,3.858 -0.77,7.739 -5.471,8.335c-3.603,0.455 -4.948,-1.367 -4.66,-4.745l2.51,-29.846c0.297,-3.937 1.569,-6.485 5.885,-6.952c3.615,-0.376 4.089,2.109 3.625,7.262l-0.297,3.299l13.784,-1.743l0.386,-4.505c1.07,-12.314 -5.519,-16.573 -17.271,-15.086c-12.61,1.598 -18.984,8.452 -20.108,21.568l-2.04,24.772c-0.925,10.94 2.134,18.751 13.807,17.273c5.951,-0.754 9.2,-2.756 12.484,-8.266l0.154,-0.019l0.187,5.229l9.399,-1.19Zm61.425,30.489l2.642,-31.774l-7.261,0.918l-2.643,31.775l7.262,-0.919Zm-105.526,-24.907l5.017,-60.327l-13.785,1.743l-5.02,60.33l13.788,-1.746Zm40.299,10.359c0.49,-6.1 -2.655,-9.055 -9.007,-8.25c-6.356,0.802 -10.186,4.641 -10.672,10.741l-1.089,12.923c-0.603,7.16 1.632,10.567 8.976,9.636c7.344,-0.929 10.103,-4.967 10.703,-12.128l1.089,-12.922Zm-8.395,14.476c-0.186,1.825 -0.555,4.556 -2.908,4.853c-2.349,0.3 -2.437,-2.375 -2.248,-4.2l1.074,-13.045c0.17,-1.952 0.666,-4.32 2.977,-4.613c2.393,-0.303 2.352,2.008 2.179,3.956l-1.074,13.049Zm-35.172,-8.964c0.486,-6.096 -2.655,-9.052 -9.011,-8.25c-6.352,0.805 -10.182,4.645 -10.671,10.741l-1.09,12.923c-0.6,7.161 1.633,10.568 8.977,9.639c7.343,-0.931 10.103,-4.966 10.706,-12.127l1.089,-12.926Zm-8.395,14.48c-0.19,1.825 -0.556,4.556 -2.908,4.852c-2.352,0.297 -2.437,-2.374 -2.251,-4.202l1.073,-13.046c0.174,-1.951 0.67,-4.319 2.981,-4.613c2.39,-0.3 2.349,2.012 2.178,3.96l-1.073,13.049Zm108.566,-90.368l10.811,-1.37l-4.079,48.268l13.787,-1.743l4.077,-48.268l11.123,-1.408l0.944,-12.058l-35.722,4.521l-0.941,12.058Z" style="fill:#717171;fill-opacity:0.75;"/></svg>