<?xml version="1.0" encoding="UTF-8" standalone="no"?>
<!DOCTYPE svg PUBLIC "-//W3C//DTD SVG 1.1//EN" "http://www.w3.org/Graphics/SVG/1.1/DTD/svg11.dtd">
<svg width="100%" height="100%" viewBox="0 0 119 67" version="1.1" xmlns="http://www.w3.org/2000/svg" xmlns:xlink="http://www.w3.org/1999/xlink" xml:space="preserve" xmlns:serif="http://www.serif.com/" style="fill-rule:evenodd;clip-rule:evenodd;stroke-linejoin:round;stroke-miterlimit:2;">
    <g transform="matrix(1,0,0,1,-2769,-976)">
        <g transform="matrix(2.77298,0,0,8.19504,0,4592.38)">
            <g id="logo-4" transform="matrix(0.0836476,0,0,0.0836476,915.707,-419.943)">
                <g transform="matrix(1.5026,0,0,0.508437,989.906,-254.437)">
                    <path d="M60.447,44.848C25.368,66.625 4.261,92.492 1.03,117.714C-2.207,142.947 12.894,163.891 43.541,176.723C73.072,189.074 113.856,192.524 158.399,186.465C202.924,180.404 246.064,165.516 279.857,144.556C314.95,122.771 336.05,96.914 339.285,71.677C342.519,46.46 327.411,25.509 296.765,12.69C267.249,0.329 226.461,-3.131 181.932,2.926C137.39,8.986 94.252,23.874 60.447,44.848Z" style="fill:rgb(35,31,32);fill-rule:nonzero;"/>
                </g>
                <g transform="matrix(1.5026,0,0,0.508437,989.906,-254.437)">
                    <path d="M100.467,157.32C88.457,158.741 89.275,144.917 90.025,136.708C90.849,127.524 90.752,114.581 103.982,113.016C116.805,111.499 116.215,123.942 115.391,133.126C114.566,142.311 113.494,155.778 100.467,157.32ZM96.436,74.081C97.134,65.491 99.358,55.948 110.349,54.648C119.916,53.516 121.23,63.22 120.554,70.454C119.805,78.663 116.97,88.278 106.386,89.531C96.819,90.663 95.786,81.505 96.436,74.081ZM79.562,103.725C61.845,116.455 58.934,125.5 57.56,141.323C54.986,169.661 69.211,184.605 95.468,181.498C127.425,177.717 144.629,162.728 147.528,130.677C149.102,113.284 146.263,104.533 131.466,97.583L131.414,97.203C145.601,88.951 151.612,76.832 152.813,64.317C155.06,38.144 138.578,27.913 111.71,31.093C85.452,34.199 66.747,48.786 64.474,74.77C63.072,88.856 67.006,98.057 79.51,103.345L79.562,103.725Z" style="fill:rgb(211,59,50);fill-rule:nonzero;"/>
                </g>
                <g transform="matrix(0.360623,0,0,0.122025,0,-560.386)">
                    <path d="M3058.42,2940.37C3011.57,2914.81 2998.6,2873.08 3003.66,2817.88C3014.3,2701.92 3098.73,2639.95 3209.27,2626.87C3259.93,2620.88 3321.69,2623.86 3359.71,2662.7C3389.22,2692.85 3395.28,2735.73 3391.68,2776.13C3386.51,2834.13 3358.11,2880.29 3311.44,2912.18C3329.9,2922.55 3346.4,2935.89 3357.08,2954.78C3373.52,2983.84 3372.57,3020.44 3369.65,3052.65C3357,3192.47 3280.14,3257.33 3143.95,3273.44C3099.88,3278.65 3052.75,3273.23 3018.44,3242.53C2977.54,3205.94 2970.22,3146.97 2974.85,3095.21C2976.99,3071.3 2980.15,3047.12 2988.86,3024.6C3002.62,2989.08 3028.9,2962.95 3058.42,2940.37ZM3076.55,2939.45C3002.73,2992.49 2990.6,3030.18 2984.87,3096.1C2974.15,3214.18 3033.42,3276.45 3142.82,3263.5C3275.98,3247.74 3347.66,3185.29 3359.74,3051.75C3366.3,2979.28 3354.47,2942.81 3292.82,2913.85L3292.6,2912.27C3351.71,2877.89 3376.76,2827.39 3381.76,2775.25C3391.12,2666.19 3322.45,2623.56 3210.5,2636.81C3101.09,2649.75 3023.15,2710.53 3013.68,2818.8C3007.84,2877.49 3024.23,2915.83 3076.33,2937.86L3076.55,2939.45ZM3163.65,3162.76C3113.61,3168.68 3117.02,3111.08 3120.14,3076.88C3123.58,3038.61 3123.17,2984.68 3178.3,2978.16C3231.73,2971.84 3229.27,3023.68 3225.84,3061.95C3222.4,3100.22 3217.93,3156.33 3163.65,3162.76ZM3162.42,3152.82C3208.88,3147.32 3212.5,3098.01 3215.81,3061.05C3216.45,3053.89 3217.02,3046.71 3217.23,3039.51C3217.62,3026.28 3217.13,3005.68 3207.66,2995.29C3200.55,2987.49 3189.23,2986.94 3179.42,2988.1C3165.93,2989.7 3154.31,2994.64 3146.16,3005.84C3132.65,3024.4 3132.07,3055.57 3130.06,3077.78C3129.15,3087.83 3128.41,3097.95 3128.58,3108.05C3128.79,3120.05 3130.4,3138.12 3139.45,3147.05C3145.57,3153.09 3154.29,3153.78 3162.42,3152.82ZM3146.86,2815.93C3149.76,2780.14 3159.03,2740.38 3204.83,2734.96C3244.69,2730.24 3250.16,2770.68 3247.35,2800.82C3244.23,2835.02 3232.41,2875.08 3188.32,2880.3C3148.45,2885.02 3144.15,2846.86 3146.86,2815.93ZM3156.78,2816.77C3156.42,2821.03 3156.2,2825.3 3156.2,2829.57C3156.18,2840.49 3157.55,2856.75 3165.72,2864.95C3171.38,2870.62 3179.53,2871.26 3187.09,2870.36C3224.26,2865.96 3234.38,2831.93 3237.33,2799.89C3237.86,2794.2 3238.05,2788.44 3237.79,2782.72C3237.31,2772.24 3235.04,2757.99 3227.11,2750.36C3221.36,2744.83 3213.57,2744 3205.95,2744.9C3166.97,2749.51 3159.57,2783.61 3156.78,2816.77Z" style="fill:white;"/>
                </g>
                <g transform="matrix(0.360623,0,0,0.122025,0,-560.386)">
                    <path d="M3039.63,2695.74C3012.98,2727.11 2995.72,2767.38 2991.19,2816.74C2986.48,2868.08 2996.66,2912.09 3036.91,2941.56C3011.29,2963.14 2989.59,2988.03 2977.18,3020.08C2968.01,3043.78 2964.62,3068.94 2962.38,3094.1C2957.65,3147.01 2965.16,3205.78 3003.29,3245.32C2980.08,3238.95 2957.33,3231.28 2935.41,3222.11C2868.73,3194.21 2800.32,3147.83 2778.12,3075.26C2770.7,3050.99 2769.17,3025.81 2772.39,3000.7C2788.16,2877.72 2910.71,2775.01 3009.14,2713.92C3019.16,2707.7 3029.33,2701.64 3039.63,2695.74ZM3211.65,3272.89C3312.8,3243.67 3371.14,3175.21 3382.13,3053.78C3385.31,3018.65 3385.89,2980.27 3367.98,2948.62C3359.34,2933.35 3347.38,2921.26 3333.5,2911.33C3374.81,2877.64 3399.28,2831.91 3404.15,2777.24C3408.09,2733.04 3400.88,2686.85 3368.66,2653.94C3330.25,2614.69 3270.97,2608.61 3218.49,2613.32C3312.21,2579.1 3410.42,2555.57 3506.18,2542.54C3591.07,2530.99 3678.31,2526.97 3763.75,2534.24C3834.22,2540.23 3907.05,2554.23 3972.51,2581.63C4039.21,2609.55 4107.7,2655.97 4129.87,2728.6C4137.25,2752.8 4138.77,2777.91 4135.56,2802.95C4119.78,2925.99 3997.26,3028.66 3898.78,3089.77C3751.65,3181.06 3572.81,3237.84 3401.84,3261.1C3339.17,3269.63 3275.22,3274.07 3211.65,3272.89ZM3934.72,2980.68L3943.09,2880.04L3920.09,2882.95L3911.72,2983.59L3934.72,2980.68ZM3728.13,2934.6C3729.68,2915.28 3719.72,2905.92 3699.6,2908.47C3679.47,2911.01 3667.34,2923.17 3665.8,2942.49L3662.35,2983.42C3660.44,3006.1 3667.52,3016.89 3690.78,3013.94C3714.04,3011 3722.78,2998.21 3724.68,2975.53L3728.13,2934.6ZM3701.54,2980.45C3700.95,2986.23 3699.78,2994.88 3692.33,2995.82C3684.89,2996.77 3684.61,2988.3 3685.21,2982.52L3688.61,2941.2C3689.15,2935.02 3690.72,2927.52 3698.04,2926.59C3705.62,2925.63 3705.49,2932.95 3704.94,2939.12L3701.54,2980.45ZM3534.49,2910.14L3537.72,2871.93L3478.43,2879.43L3481.77,2838.17L3536.35,2831.26L3539.58,2793.04L3485,2799.95L3488.11,2764.77L3544.43,2757.64L3547.41,2719.45L3447.43,2732.1L3431.53,2923.18L3534.49,2910.14ZM3997.31,2972.75L3999.01,2952.62L3970.92,2956.18L3977.59,2875.68L3954.59,2878.58L3946.22,2979.22L3997.31,2972.75ZM3443,3042.91L3447.52,2964.27L3447.78,2964.24L3456.98,3041.14L3474.12,3038.97L3496.93,2958.02L3497.2,2957.98L3488.23,3037.19L3510.19,3034.41L3518.56,2933.77L3486.41,2937.84L3469.18,2998.84L3468.91,2998.88L3461.98,2940.93L3429.55,2945.04L3421.18,3045.68L3443,3042.91ZM3758.89,2963.63L3766.47,2962.67C3771.75,2962.4 3773.29,2966.19 3773.4,2972.28C3773.51,2978.38 3772.31,2986.76 3771.97,2995.57C3771.95,2997.56 3772.31,2999.38 3772.81,3001.17L3797.9,2997.99L3797.99,2996.65C3797.09,2995.84 3796.55,2994.71 3796.12,2993.44C3795.33,2987.17 3796.6,2969.88 3796.65,2961.9C3796.83,2954.98 3792.61,2951 3786.42,2950.32L3786.39,2950.06C3796.41,2944.28 3799.52,2936.32 3800.42,2925.58C3802.13,2905.58 3793.33,2899 3774.52,2901.38L3740.93,2905.62L3732.56,3006.26L3755.56,3003.35L3758.89,2963.63ZM3762.5,2920.82C3773.71,2919.14 3778.48,2919.06 3777.47,2931.01C3777.05,2937.17 3774.95,2943.68 3768.29,2944.52L3760.45,2945.51L3762.5,2920.82ZM3906.12,2912.07C3907.65,2892.75 3897.71,2883.39 3877.58,2885.94C3857.46,2888.49 3845.32,2900.65 3843.78,2919.96L3840.33,2960.89C3838.43,2983.57 3845.5,2994.36 3868.76,2991.42C3892.02,2988.47 3900.76,2975.68 3902.67,2953L3906.12,2912.07ZM3879.53,2957.92C3878.93,2963.71 3877.77,2972.35 3870.32,2973.3C3862.87,2974.24 3862.6,2965.78 3863.19,2959.99L3866.59,2918.67C3867.14,2912.49 3868.71,2904.99 3876.03,2904.06C3883.61,2903.1 3883.47,2910.42 3882.93,2916.6L3879.53,2957.92ZM3804.93,2875.92L3811.51,2796.43L3841.77,2792.6L3835.2,2872.09L3878.86,2866.56L3894.76,2675.49L3851.09,2681.01L3845,2754.38L3814.73,2758.22L3820.82,2684.85L3777.15,2690.37L3761.26,2881.44L3804.93,2875.92ZM3740.17,2884.11L3748.97,2780.4L3689.68,2787.91L3686.72,2822.31L3702.36,2820.33L3700.98,2835.38C3700,2847.6 3698.54,2859.89 3683.65,2861.78C3672.24,2863.22 3667.98,2857.45 3668.89,2846.75L3676.84,2752.22C3677.78,2739.75 3681.81,2731.68 3695.48,2730.2C3706.93,2729.01 3708.43,2736.88 3706.96,2753.2L3706.02,2763.65L3749.68,2758.13L3750.9,2743.86C3754.29,2704.86 3733.42,2691.37 3696.2,2696.08C3656.26,2701.14 3636.07,2722.85 3632.51,2764.39L3626.05,2842.85C3623.12,2877.5 3632.81,2902.24 3669.78,2897.56C3688.63,2895.17 3698.92,2888.83 3709.32,2871.38L3709.81,2871.32L3710.4,2887.88L3740.17,2884.11ZM3598.75,2943.54L3616.79,2941.25L3609.98,3021.78L3632.98,3018.87L3639.78,2938.35L3658.34,2935.99L3659.91,2915.88L3600.32,2923.43L3598.75,2943.54ZM3600.49,2901.79L3616.38,2710.72L3572.72,2716.24L3556.82,2907.32L3600.49,2901.79ZM4016.05,2922.64C4015.47,2915.79 4009.46,2910.71 4002.62,2911.28C3995.78,2911.85 3990.7,2917.86 3991.28,2924.7C3991.84,2931.55 3997.85,2936.61 4004.68,2936.04C4011.52,2935.47 4016.62,2929.49 4016.05,2922.64ZM3994.71,2918.14L3997.93,2917.88L3999.72,2924.38L4000.43,2917.67L4003.63,2917.4L4004.53,2928.27L4002.55,2928.43L4001.86,2920.12L4000.99,2928.55L3999.16,2928.71L3996.91,2920.53L3997.58,2928.83L3995.61,2929.01L3994.71,2918.14ZM4005.45,2928.18L4004.56,2917.33L4008.65,2916.98C4009.42,2916.93 4010.01,2916.96 4010.44,2917.1C4010.83,2917.22 4011.2,2917.54 4011.47,2918.01C4011.76,2918.47 4011.91,2919.04 4011.97,2919.74C4012.02,2920.3 4011.98,2920.86 4011.84,2921.33C4011.67,2921.78 4011.45,2922.16 4011.14,2922.45C4010.96,2922.66 4010.65,2922.8 4010.31,2922.95C4010.62,2923.06 4010.84,2923.19 4010.98,2923.32C4011.07,2923.36 4011.23,2923.56 4011.45,2923.85C4011.62,2924.13 4011.77,2924.31 4011.81,2924.5L4013.27,2927.54L4010.52,2927.77L4008.93,2924.54C4008.71,2924.13 4008.55,2923.86 4008.4,2923.76C4008.18,2923.57 4008.02,2923.53 4007.77,2923.56L4007.58,2923.57L4007.95,2927.98L4005.45,2928.18ZM4007.41,2921.52L4008.44,2921.44C4008.55,2921.44 4008.78,2921.35 4009.09,2921.22C4009.22,2921.18 4009.36,2921.05 4009.46,2920.84C4009.55,2920.67 4009.56,2920.47 4009.53,2920.23C4009.51,2919.86 4009.42,2919.61 4009.22,2919.39C4009.05,2919.25 4008.73,2919.15 4008.29,2919.2L4007.23,2919.28L4007.41,2921.52ZM3590.14,2952.06C3591.68,2932.75 3581.73,2923.39 3561.6,2925.93C3541.48,2928.48 3529.35,2940.64 3527.8,2959.95L3524.35,3000.88C3522.45,3023.56 3529.52,3034.35 3552.78,3031.41C3576.04,3028.46 3584.78,3015.68 3586.69,2993L3590.14,2952.06ZM3563.55,2997.92C3562.95,3003.7 3561.79,3012.35 3554.34,3013.29C3546.89,3014.23 3546.62,3005.77 3547.21,2999.98L3550.61,2958.66C3551.16,2952.48 3552.73,2944.98 3560.05,2944.05C3567.62,2943.1 3567.49,2950.42 3566.95,2956.59L3563.55,2997.92ZM3907.41,2711.7L3941.65,2707.36L3928.73,2860.24L3972.4,2854.72L3985.31,2701.84L4020.54,2697.38L4023.53,2659.19L3910.39,2673.51L3907.41,2711.7ZM3169.26,2817.82C3170.56,2802.34 3173.12,2781.42 3183.41,2769.18C3189.65,2761.76 3197.95,2758.45 3207.43,2757.33C3210.89,2756.93 3215.69,2756.76 3218.43,2759.39C3223.5,2764.27 3224.97,2776.65 3225.28,2783.29C3225.51,2788.44 3225.33,2793.62 3224.86,2798.74C3222.5,2824.35 3215.86,2854.35 3185.62,2857.93C3182.41,2858.3 3177.08,2858.6 3174.6,2856.11C3169.49,2850.99 3168.71,2836.37 3168.72,2829.59C3168.73,2825.66 3168.93,2821.73 3169.26,2817.82ZM3160.95,3140.38C3157.1,3140.84 3151.24,3141.09 3148.25,3138.14C3142.29,3132.27 3141.24,3115.7 3141.1,3107.84C3140.93,3098.18 3141.66,3088.51 3142.53,3078.9C3144.24,3060.02 3144.9,3028.87 3156.29,3013.21C3162.33,3004.91 3170.98,3001.71 3180.89,3000.53C3186.03,2999.93 3194.56,2999.5 3198.41,3003.72C3204.88,3010.83 3204.98,3030.08 3204.72,3039.15C3204.51,3046.09 3203.96,3053.02 3203.34,3059.94C3201.47,3080.8 3199.4,3112.5 3184.96,3128.68C3178.56,3135.86 3170.41,3139.26 3160.95,3140.38Z" style="fill:rgb(255,212,0);"/>
                </g>
            </g>
        </g>
    </g>
</svg>
